<?xml version="1.0" encoding="UTF-8"?> <!-- Generator: Adobe Illustrator 19.1.1, SVG Export Plug-In . SVG Version: 6.00 Build 0) --> <svg xmlns="http://www.w3.org/2000/svg" xmlns:xlink="http://www.w3.org/1999/xlink" id="Слой_1" x="0px" y="0px" viewBox="-74 295.5 445.7 213.2" style="enable-background:new -74 295.5 445.7 213.2;" xml:space="preserve"> <style type="text/css"> .st0{fill:#00631D;} </style> <path class="st0" d="M273.5,432c1,0.4,1.9,0.9,2.8,1.4c0,0,0.1,0,0.1,0.1c0.9,0.5,1.7,1.1,2.5,1.7c1.4,1,2.7,2.2,3.9,3.5l1.2,1.4 l8.6,14.3H275h-1.4L273.5,432L273.5,432z M235.2,480.2v-0.5v-40.4v-0.7c0-4.1,3.2-7.4,7.4-7.4h3.1c-0.1,0.3-0.3,0.6-0.4,0.9 c-1,2.3-1.7,4.7-1.9,7.3c0.6-0.7,1.2-1.4,1.9-2c0.9-0.8,1.8-1.6,2.7-2.3c0.2-0.2,0.5-0.4,0.7-0.5c0.3-0.2,0.7-0.5,1.1-0.7 c0.3-0.2,0.6-0.4,0.9-0.6s0.7-0.4,1.1-0.6s0.7-0.4,1.1-0.5c0.3-0.2,0.7-0.3,1-0.4c0.4-0.2,0.8-0.3,1.3-0.5c0.3-0.1,0.6-0.2,1-0.3 c0.5-0.1,1-0.3,1.5-0.4c0.3-0.1,0.5-0.1,0.8-0.2c0.8-0.2,1.6-0.3,2.4-0.4v49.6v0.4c0,2.7-1.5,5.1-3.6,6.4c-2.7,1.5-5.9,2.4-9.3,2.4 c-3.1,0-6.1-0.8-8.8-2.2c-0.1,0-0.1-0.1-0.2-0.1C236.8,485.4,235.2,483,235.2,480.2L235.2,480.2z M66.9,432c1,0.4,1.9,0.9,2.8,1.4 c0,0,0.1,0,0.1,0.1c0.9,0.5,1.7,1.1,2.5,1.7l0,0c1.4,1,2.7,2.2,3.8,3.4l1.2,1.4l8.6,14.3H68.3h-1.4L66.9,432L66.9,432z M370.7,488.1 c0.4-1.1,0.7-2.2,0.9-3.3c-4.8,5.7-12.1,9.3-20.1,9.3c-5.2,0-10-1.5-14.1-4.1c-0.6-0.4-1.1-0.8-1.7-1.2c-0.2-0.1-0.4-0.3-0.6-0.4 c-0.4-0.3-0.9-0.7-1.3-1.1c-0.3-0.3-0.6-0.6-0.9-0.9s-0.6-0.6-0.9-0.9c-0.6-0.7-1.2-1.4-1.7-2.1l-0.4-0.5L298.7,430l-0.5-0.7 c-1.7-2.5-3.7-4.8-6-6.7c-0.5-0.4-0.9-0.7-1.4-1.1l0,0c-5-3.6-11.1-5.8-17.7-5.8c-2.7,0-5.8,0.1-8.4,0.7 c-6.9,1.3-12.8,5.5-16.7,11.1c-0.5,0.7-0.9,1.4-1.4,2.1V420v-0.9H219l-28.7,50.1l-29.7-50.1H116v12.1h1.4h6.1c0.7,0,1.4,0,2,0.1 c0.4,0.1,0.7,0.1,1,0.2c0.2,0.1,0.4,0.1,0.6,0.2c0.4,0.2,0.9,0.3,1.2,0.6c0.1,0,0.1,0.1,0.2,0.1c0.4,0.2,0.8,0.5,1.2,0.8 c1.8,1.6,2.8,3.9,2.8,6.4l-0.1,42.6c0.3,3.9-3,4.9-4.3,4.8c-0.4,0-0.9-0.2-1.4-0.5l0,0c-0.5-0.3-1-0.7-1.5-1.1c0,0,0,0-0.1-0.1 c-0.2-0.2-0.3-0.3-0.5-0.5l-0.1-0.1c-0.2-0.2-0.3-0.4-0.4-0.5l-32.2-53.7l-0.2-0.4c-0.5-0.8-1-1.5-1.5-2.2c-0.1-0.1-0.2-0.3-0.3-0.4 c-0.6-0.7-1.1-1.4-1.8-2.1c0,0,0,0-0.1-0.1c-0.7-0.7-1.4-1.4-2.1-2l0,0c-0.7-0.7-1.5-1.3-2.3-1.9l0,0l0,0c-4.9-3.6-11-5.7-17.6-5.7 c-1.2,0-2.4,0.1-3.6,0.2c-11.9,1.5-24.6,11.5-25.9,23.4c0.6-0.7,1.3-1.4,2-2.1c0.9-0.9,1.9-1.7,2.9-2.4c0.2-0.1,0.3-0.2,0.5-0.4 c0.4-0.3,0.8-0.5,1.2-0.7c0.3-0.2,0.6-0.4,0.9-0.5c0.4-0.2,0.7-0.4,1.1-0.6s0.7-0.3,1.1-0.5c0.3-0.2,0.7-0.3,1.1-0.4 c0.4-0.2,0.8-0.3,1.3-0.4c0.3-0.1,0.7-0.2,1-0.3c0.5-0.1,1-0.3,1.5-0.4c0.3-0.1,0.5-0.1,0.8-0.2c0.8-0.2,1.6-0.3,2.4-0.4l0.1,51.1 v0.4c-0.2,2.6-2.2,5.3-4.5,6.5c-1.5,0.8-3.2,1.2-4.9,1.2c-1.9,0-3.6-0.5-5.1-1.4l0,0c-0.8-0.5-1.5-1-2.2-1.6l0,0 c-0.3-0.3-0.6-0.6-0.8-0.9l-0.1-0.1c-0.3-0.4-0.5-0.7-0.8-1.1l-0.3-0.6L8.8,421.1L8,419.3l-38.8,63.3c-4.8,6.9-12.8,11.6-21.8,11.6 c-5.1,0-9.8-1.4-13.8-3.9c-1.8-1.1-3.5-2.5-5-4c-0.6-0.6-1.1-1.2-1.6-1.8c2.2,10.6,10.1,19.2,20.3,22.5c0.3,0.1,0.5,0.2,0.8,0.2 c0.4,0.1,0.9,0.2,1.3,0.3s0.8,0.2,1.1,0.3c0.4,0.1,0.7,0.1,1.1,0.2c0.5,0.1,1,0.1,1.5,0.2c0.3,0,0.6,0.1,0.9,0.1 c0.8,0.1,1.6,0.1,2.5,0.1c9.8,0,18.9-4.8,24.4-12l26.9-45.9l0.8,1.9l12.9,29.9c0.1,0.5,0.2,0.9,0.2,1.5c0,2.7-2.2,4.8-4.8,4.8h-0.5 H8.3v12.1h1.4H81v-11.2v-0.9h-6.4h-0.5c-1.1-0.1-2.1-0.4-3.1-0.9c-0.5-0.3-1-0.6-1.5-1c-0.1-0.1-0.2-0.2-0.3-0.2 c-0.2-0.2-0.3-0.3-0.5-0.5c-0.1-0.1-0.2-0.3-0.3-0.4c-0.1-0.2-0.2-0.3-0.4-0.5c-0.2-0.3-0.4-0.7-0.5-1c-0.1-0.1-0.1-0.3-0.1-0.4 c-0.1-0.3-0.2-0.6-0.3-0.9c0-0.1-0.1-0.3-0.1-0.4c-0.1-0.4-0.1-0.9-0.1-1.3L67,466h25.9l0.6,0.9l17,28.6c3.9,5.6,9.7,9.8,16.4,11.8 c0.1,0,0.2,0.1,0.3,0.1c0.6,0.2,1.1,0.3,1.7,0.4c0.2,0,0.4,0.1,0.6,0.1c0.5,0.1,1,0.2,1.5,0.3c0.2,0,0.4,0.1,0.7,0.1 c0.5,0.1,1,0.1,1.5,0.2c0.2,0,0.4,0,0.6,0.1c0.7,0,1.4,0.1,2.2,0.1c15,0,27.1-9.4,30-23.7c-1.4,3-4,3.8-7.5,3.8 c-1.5,0-2.9-0.4-4.1-1.1c-0.9-0.5-1.8-1.2-2.5-2c-0.1-0.1-0.2-0.2-0.3-0.3c-0.2-0.2-0.3-0.5-0.5-0.7c-0.2-0.3-0.4-0.6-0.5-1 c-0.1-0.2-0.1-0.4-0.2-0.5c-0.1-0.4-0.2-0.7-0.3-1.1c0-0.2-0.1-0.3-0.1-0.5c-0.1-0.5-0.2-1.1-0.2-1.6v-41.5l1.4,2.3l35.7,60.2 l0.4-0.7l35.3-61.7v3.3l0.1,38.9v0.5c0,4.1-3.4,7.4-7.7,7.4h-6.9v12.1h1.4H288v-11.2v-0.9h-7.1c-1.2,0-2.3-0.3-3.3-0.9 c-0.6-0.3-1.1-0.7-1.6-1.2c0,0,0,0-0.1-0.1c-0.2-0.2-0.4-0.4-0.6-0.6c-0.1-0.1-0.2-0.2-0.3-0.4c-0.2-0.2-0.3-0.4-0.4-0.6 c-0.2-0.3-0.4-0.7-0.5-1c-0.1-0.1-0.1-0.3-0.2-0.4c-0.1-0.3-0.2-0.6-0.3-0.9c0-0.1-0.1-0.3-0.1-0.4c-0.1-0.5-0.1-0.9-0.1-1.4V466 h26.5l0.6,0.9l16.9,28.2c3.4,5.1,8.4,9.1,14.3,11.3c0.1,0,0.1,0,0.2,0.1c0.6,0.2,1.1,0.4,1.7,0.6c0.2,0,0.3,0.1,0.5,0.1 c0.5,0.1,1,0.3,1.5,0.4c0.2,0,0.4,0.1,0.6,0.1c0.5,0.1,0.9,0.2,1.4,0.3c0.2,0,0.4,0.1,0.7,0.1c0.5,0.1,1,0.1,1.5,0.2 c0.2,0,0.4,0,0.6,0.1c0.7,0,1.4,0.1,2.1,0.1c0.9,0,1.7,0,2.6-0.1c0.3,0,0.6-0.1,0.9-0.1c0.5-0.1,1.1-0.1,1.6-0.2 c0.3-0.1,0.7-0.1,1-0.2c0.5-0.1,0.9-0.2,1.4-0.3c0.4-0.1,0.7-0.2,1.1-0.3s0.8-0.2,1.2-0.4c0.4-0.1,0.8-0.3,1.1-0.4 c0.4-0.1,0.7-0.3,1.1-0.5c0.4-0.2,0.8-0.4,1.2-0.6c0.3-0.2,0.6-0.3,0.9-0.5c0.4-0.2,0.8-0.5,1.2-0.7c0.3-0.2,0.5-0.3,0.8-0.5 c0.4-0.3,0.8-0.6,1.3-0.9c0.2-0.1,0.4-0.3,0.6-0.4c0.5-0.3,0.9-0.7,1.3-1.1c0.1-0.1,0.2-0.2,0.3-0.3 C366,497.7,369,493.2,370.7,488.1L370.7,488.1z"></path> <g> <path class="st0" d="M189.1,374.9c-6.8,9.3-17.1,16-28.9,18v-37.3c0,0,11.4-14.6,22.6-12.7C193.8,344.7,199.7,356.6,189.1,374.9 L189.1,374.9z M185.8,336c-15.6-3.6-25.7,10.3-25.7,10.3v-42.5c16.8,2.9,30.4,15,35.4,30.9c0.7,0.4,5.2,3.4,8.5,8.5 c-2.6-25.8-24-46-50.4-46.7v6.6v90.5v6.7c15.4-0.4,29.2-7.5,38.4-18.5l0,0c1.9-2.1,3.7-4.5,5.1-7.2 C206.1,357.8,201.4,339.6,185.8,336z"></path> <path class="st0" d="M152.2,401.8V295h1.5c26.9,0.7,49.2,21.3,51.8,48l0.6,6.2l-3.4-5.2c-3.1-4.7-7.2-7.5-8.1-8.1l-0.5-0.3 l-0.2-0.5c-4.8-15.1-17.2-26.3-32.5-29.5v36.7c4.1-4.1,12.8-10.5,24.5-7.8l0,0c6.7,1.5,11.9,5.8,14.7,11.9 c3.8,8.2,2.9,18.9-2.3,28.8c-1.4,2.6-3.1,5-5.2,7.3l-0.1,0.2c-9.9,11.7-24.3,18.7-39.6,19L152.2,401.8z M155.2,298.1v100.6 c13.6-0.7,26.3-7,35.3-17.3l0,0l0.6-0.7c2-2.2,3.6-4.5,4.9-6.9c4.7-9,5.6-18.8,2.2-26.1c-2.4-5.3-6.8-8.9-12.7-10.2l0,0 c-14.4-3.3-23.7,9.1-24.1,9.7l-2.7,3.7V302l1.8,0.3c17.1,2.9,31,14.9,36.4,31.4c0.9,0.6,2.9,2.1,4.9,4.2 C197.1,315.8,178.1,299.3,155.2,298.1z M158.6,394.7v-39.6l0.3-0.4c0.5-0.6,12.1-15.3,24.1-13.3c5.3,0.9,9.4,3.9,11.5,8.4 c3.1,6.7,1.6,15.8-4.2,25.9l-0.1,0.1c-7.2,9.9-17.8,16.6-29.9,18.6L158.6,394.7z M161.6,356.1v35c10.5-2.2,19.8-8.2,26.2-17 c5.3-9.1,6.7-17.3,4-23c-1.7-3.6-5-6-9.3-6.7C173.3,342.8,163.5,353.9,161.6,356.1z"></path> </g> <path class="st0" d="M145.2,295c-14,0.4-27.1,6.1-36.9,16.1s-15.2,23.3-15.2,37.3s5.4,27.3,15.2,37.3c9.8,10.1,22.9,15.8,36.9,16.1 h1.5V295H145.2z M137.3,305.6v40.9c-8.3-13.6-24.1-16.7-30.1-17.4C113.1,317,124.2,308.4,137.3,305.6z M137.4,391.2 c-20.2-4.3-34.6-22-34.6-42.8c0-3.2,0.3-6.4,1-9.5c32.2,1.2,33.5,38.5,33.6,42.8V391.2z"></path> </svg> 